<svg width="1200" height="900" viewBox="0 0 1200 900" xmlns="http://www.w3.org/2000/svg">
  <!-- Background -->
  <rect width="1200" height="900" fill="#1A1A1A"/>
  
  <!-- Header -->
  <rect width="1200" height="120" fill="#1A1A1A"/>
  <rect y="118" width="1200" height="2" fill="#C9A64E"/>
  
  <!-- Logo/Title Area -->
  <rect x="50" y="30" width="300" height="60" fill="#2E2E2E" rx="5"/>
  <text x="70" y="55" font-family="Arial, sans-serif" font-size="24" font-weight="bold" fill="#C9A64E">MBO Advocacia</text>
  <text x="70" y="75" font-family="Arial, sans-serif" font-size="14" fill="#F5F5F5">Excelência em Serviços Jurídicos</text>
  
  <!-- Contact Button -->
  <rect x="1000" y="40" width="150" height="40" fill="#C9A64E" rx="5"/>
  <text x="1020" y="63" font-family="Arial, sans-serif" font-size="14" fill="#1A1A1A">Entre em Contato</text>
  
  <!-- Navigation -->
  <rect width="1200" height="50" y="120" fill="#2E2E2E"/>
  <text x="50" y="148" font-family="Arial, sans-serif" font-size="16" fill="#C9A64E">Início</text>
  <text x="120" y="148" font-family="Arial, sans-serif" font-size="16" fill="#F5F5F5">Sobre</text>
  <text x="180" y="148" font-family="Arial, sans-serif" font-size="16" fill="#F5F5F5">Serviços</text>
  <text x="260" y="148" font-family="Arial, sans-serif" font-size="16" fill="#F5F5F5">Blog</text>
  <text x="310" y="148" font-family="Arial, sans-serif" font-size="16" fill="#F5F5F5">Contato</text>
  
  <!-- Search Icon -->
  <circle cx="1150" cy="145" r="12" fill="none" stroke="#bdc3c7" stroke-width="2"/>
  <line x1="1160" y1="155" x2="1165" y2="160" stroke="#bdc3c7" stroke-width="2"/>
  
  <!-- Main Content Area -->
  <rect x="50" y="200" width="750" height="600" fill="#1A1A1A" rx="8" stroke="#C9A64E" stroke-width="1"/>
  
  <!-- Featured Post -->
  <rect x="70" y="220" width="710" height="200" fill="#2E2E2E" rx="5"/>
  <rect x="70" y="220" width="710" height="120" fill="#3A3A3A" rx="5"/>
  <text x="90" y="350" font-family="Arial, sans-serif" font-size="24" font-weight="bold" fill="#C9A64E">Direito Empresarial: Guia Completo</text>
  <text x="90" y="375" font-family="Arial, sans-serif" font-size="14" fill="#E4C97D">15 de Janeiro, 2024 • Por Dr. João Silva • Direito Empresarial</text>
  <text x="90" y="400" font-family="Arial, sans-serif" font-size="16" fill="#F5F5F5">Entenda os principais aspectos do direito empresarial e como ele pode proteger seu negócio...</text>
  
  <!-- Blog Posts -->
  <rect x="70" y="450" width="710" height="120" fill="#2E2E2E" rx="5"/>
  <rect x="70" y="450" width="150" height="80" fill="#3A3A3A" rx="3"/>
  <text x="240" y="475" font-family="Arial, sans-serif" font-size="18" font-weight="bold" fill="#C9A64E">Contratos de Trabalho</text>
  <text x="240" y="495" font-family="Arial, sans-serif" font-size="12" fill="#E4C97D">10 de Janeiro, 2024</text>
  <text x="240" y="515" font-family="Arial, sans-serif" font-size="14" fill="#F5F5F5">Principais cláusulas que devem constar em contratos...</text>
  
  <rect x="70" y="590" width="710" height="120" fill="#2E2E2E" rx="5"/>
  <rect x="70" y="590" width="150" height="80" fill="#3A3A3A" rx="3"/>
  <text x="240" y="615" font-family="Arial, sans-serif" font-size="18" font-weight="bold" fill="#C9A64E">Direitos do Consumidor</text>
  <text x="240" y="635" font-family="Arial, sans-serif" font-size="12" fill="#E4C97D">8 de Janeiro, 2024</text>
  <text x="240" y="655" font-family="Arial, sans-serif" font-size="14" fill="#F5F5F5">Como proteger seus direitos em compras online...</text>
  
  <!-- Sidebar -->
  <rect x="820" y="200" width="330" height="600" fill="#2E2E2E" stroke="#C9A64E" stroke-width="1"/>
  
  <!-- Search Widget -->
  <rect x="840" y="220" width="290" height="80" fill="#2E2E2E"/>
  <text x="860" y="245" font-family="Arial, sans-serif" font-size="16" font-weight="bold" fill="#C9A64E">Buscar</text>
  <rect x="860" y="255" width="250" height="30" fill="#1A1A1A" stroke="#C9A64E" stroke-width="1"/>
  <text x="870" y="275" font-family="Arial, sans-serif" font-size="12" fill="#E4C97D">Digite sua busca...</text>
  
  <!-- Recent Posts Widget -->
  <rect x="840" y="320" width="290" height="120" fill="#2E2E2E"/>
  <text x="860" y="345" font-family="Arial, sans-serif" font-size="16" font-weight="bold" fill="#C9A64E">Posts Recentes</text>
  <text x="860" y="365" font-family="Arial, sans-serif" font-size="14" fill="#F5F5F5">• Novo Código Civil</text>
  <text x="860" y="385" font-family="Arial, sans-serif" font-size="14" fill="#F5F5F5">• Direitos Trabalhistas</text>
  <text x="860" y="405" font-family="Arial, sans-serif" font-size="14" fill="#F5F5F5">• Contratos Digitais</text>
  
  <!-- Contact Widget -->
  <rect x="840" y="460" width="290" height="140" fill="#2E2E2E"/>
  <text x="860" y="485" font-family="Arial, sans-serif" font-size="16" font-weight="bold" fill="#C9A64E">Contato</text>
  <text x="860" y="505" font-family="Arial, sans-serif" font-size="14" fill="#F5F5F5">📞 (11) 9999-9999</text>
  <text x="860" y="525" font-family="Arial, sans-serif" font-size="14" fill="#F5F5F5">✉️ contato@mbo.com.br</text>
  <text x="860" y="545" font-family="Arial, sans-serif" font-size="14" fill="#F5F5F5">📍 São Paulo, SP</text>
  <rect x="860" y="560" width="120" height="30" fill="#C9A64E" rx="5"/>
  <text x="880" y="580" font-family="Arial, sans-serif" font-size="12" fill="#1A1A1A">Agendar Consulta</text>
  
  <!-- Footer -->
  <rect y="820" width="1200" height="80" fill="#1A1A1A"/>
  <rect y="820" width="1200" height="3" fill="#C9A64E"/>
  <text x="50" y="850" font-family="Arial, sans-serif" font-size="14" fill="#F5F5F5">© 2024 MBO Advocacia. Todos os direitos reservados.</text>
  <text x="50" y="870" font-family="Arial, sans-serif" font-size="12" fill="#E4C97D">Desenvolvido com WordPress</text>
  
  <!-- Social Icons -->
  <circle cx="1050" cy="850" r="15" fill="#3b5998"/>
  <text x="1045" y="855" font-family="Arial, sans-serif" font-size="12" fill="white">f</text>
  
  <circle cx="1080" cy="850" r="15" fill="#0077b5"/>
  <text x="1075" y="855" font-family="Arial, sans-serif" font-size="12" fill="white">in</text>
  
  <circle cx="1110" cy="850" r="15" fill="#25d366"/>
  <text x="1105" y="855" font-family="Arial, sans-serif" font-size="12" fill="white">W</text>
  
  <!-- Decorative Elements -->
  <rect x="0" y="170" width="1200" height="2" fill="#3498db"/>
  
  <!-- Legal Scale Icon (decorative) -->
  <g transform="translate(950, 30)">
    <circle cx="20" cy="20" r="3" fill="#f39c12"/>
    <line x1="20" y1="23" x2="20" y2="45" stroke="#f39c12" stroke-width="2"/>
    <line x1="10" y1="30" x2="30" y2="30" stroke="#f39c12" stroke-width="2"/>
    <line x1="10" y1="30" x2="15" y2="35" stroke="#f39c12" stroke-width="1"/>
    <line x1="30" y1="30" x2="25" y2="35" stroke="#f39c12" stroke-width="1"/>
    <line x1="15" y1="35" x2="25" y2="35" stroke="#f39c12" stroke-width="1"/>
  </g>
</svg>